<svg xmlns="http://www.w3.org/2000/svg" xmlns:xlink="http://www.w3.org/1999/xlink" width="500" zoomAndPan="magnify" viewBox="0 0 375 374.999991" height="500" preserveAspectRatio="xMidYMid meet" version="1.0"><defs><g/><clipPath id="d266cecbdc"><path d="M 132 233 L 141 233 L 141 250 L 132 250 Z M 132 233 " clip-rule="nonzero"/></clipPath><clipPath id="486ccbb03a"><path d="M 112.019531 238.417969 L 190.050781 216.699219 L 207.144531 278.117188 L 129.109375 299.835938 Z M 112.019531 238.417969 " clip-rule="nonzero"/></clipPath><clipPath id="89f1a999b6"><path d="M 112.019531 238.417969 L 190.050781 216.699219 L 207.144531 278.117188 L 129.109375 299.835938 Z M 112.019531 238.417969 " clip-rule="nonzero"/></clipPath><clipPath id="f827e6e92b"><path d="M 161 224 L 170 224 L 170 240 L 161 240 Z M 161 224 " clip-rule="nonzero"/></clipPath><clipPath id="ea71c92f3c"><path d="M 112.019531 238.417969 L 190.050781 216.699219 L 207.144531 278.117188 L 129.109375 299.835938 Z M 112.019531 238.417969 " clip-rule="nonzero"/></clipPath><clipPath id="5e1fddabcf"><path d="M 112.019531 238.417969 L 190.050781 216.699219 L 207.144531 278.117188 L 129.109375 299.835938 Z M 112.019531 238.417969 " clip-rule="nonzero"/></clipPath><clipPath id="3b55087bd8"><path d="M 122 233 L 196 233 L 196 292 L 122 292 Z M 122 233 " clip-rule="nonzero"/></clipPath><clipPath id="dfa2fc2a86"><path d="M 112.019531 238.417969 L 190.050781 216.699219 L 207.144531 278.117188 L 129.109375 299.835938 Z M 112.019531 238.417969 " clip-rule="nonzero"/></clipPath><clipPath id="708c8029c4"><path d="M 112.019531 238.417969 L 190.050781 216.699219 L 207.144531 278.117188 L 129.109375 299.835938 Z M 112.019531 238.417969 " clip-rule="nonzero"/></clipPath></defs><path fill="#fbc278" d="M 200.769531 169.816406 C 200.132812 171.273438 199.492188 172.726562 198.847656 174.171875 C 196.621094 174.382812 194.078125 174.652344 191.671875 174.988281 C 185.359375 175.867188 177.429688 178.40625 161.644531 185.769531 C 145.867188 193.136719 132.453125 210.234375 121.800781 225.75 C 111.148438 241.269531 100.625 275.855469 92.078125 277.171875 C 83.53125 278.488281 76.558594 264.8125 73.273438 259.285156 C 69.984375 253.761719 61.832031 236.535156 58.148438 227.855469 C 54.464844 219.175781 43.59375 188.226562 37.808594 167.886719 C 32.019531 147.546875 29.742188 127.90625 29.214844 102.484375 C 28.691406 77.054688 42.714844 63.03125 54.640625 58.296875 C 54.796875 58.234375 54.957031 58.175781 55.125 58.121094 C 61.292969 55.964844 72.074219 57.613281 84.691406 62.496094 C 97.128906 67.308594 111.363281 75.261719 124.738281 85.824219 C 124.738281 85.824219 101.679688 75.300781 85.632812 75.699219 C 69.589844 76.09375 58.410156 85.035156 52.625 96.605469 C 46.839844 108.179688 45.523438 132.117188 47.628906 151.578125 C 49.730469 171.042969 58.148438 201.027344 63.410156 217.335938 C 68.667969 233.640625 78.007812 248.503906 83.925781 252.449219 C 89.84375 256.390625 93.394531 250.476562 101.105469 233.816406 C 108.820312 217.160156 128.984375 198.222656 139.160156 189.980469 C 148.570312 182.355469 178.316406 171.648438 200.769531 169.816406 " fill-opacity="1" fill-rule="nonzero"/><path fill="#fbc278" d="M 53.9375 54.964844 C 62.53125 51.28125 83.222656 53.035156 103.035156 64.257812 C 122.851562 75.480469 139.15625 85.121094 158.796875 79.6875 C 178.4375 74.253906 201.582031 66.886719 215.785156 74.601562 C 229.988281 82.316406 229.808594 103.007812 224.199219 124.050781 C 218.585938 145.089844 195.792969 198.398438 184.222656 215.054688 C 172.648438 231.710938 168.96875 238.550781 168.96875 238.550781 C 244.890625 160.699219 252.78125 97.925781 249.886719 85.824219 C 246.996094 73.726562 243.664062 68.992188 237.703125 65.132812 C 231.742188 61.277344 216.484375 53.5625 195.441406 59.523438 C 174.402344 65.484375 166.335938 69.691406 160.726562 71.621094 C 155.113281 73.550781 140.824219 74.777344 133.105469 72.671875 C 125.390625 70.570312 99.878906 54.613281 86.027344 51.984375 C 65.378906 48.214844 53.9375 54.964844 53.9375 54.964844 " fill-opacity="1" fill-rule="nonzero"/><g clip-path="url(#d266cecbdc)"><g clip-path="url(#486ccbb03a)"><g clip-path="url(#89f1a999b6)"><path fill="#fbc278" d="M 132.796875 235.644531 C 132.976562 237.722656 133.832031 239.867188 134.421875 241.886719 C 135.039062 244.011719 135.699219 246.070312 136.46875 248.125 C 137.21875 250.101562 140.75 249.429688 140.605469 247.285156 C 140.46875 244.855469 140.109375 242.65625 139.414062 240.355469 C 138.703125 238.113281 137.945312 235.6875 136.488281 233.820312 C 135.917969 233.101562 134.742188 232.945312 133.96875 233.332031 C 133.046875 233.785156 132.730469 234.695312 132.796875 235.644531 Z M 132.796875 235.644531 " fill-opacity="1" fill-rule="nonzero"/></g></g></g><g clip-path="url(#f827e6e92b)"><g clip-path="url(#ea71c92f3c)"><g clip-path="url(#5e1fddabcf)"><path fill="#fbc278" d="M 161.226562 226.992188 C 160.878906 228.792969 161.847656 231.046875 162.410156 232.765625 C 163.050781 234.769531 163.808594 236.574219 164.878906 238.375 C 166.328125 240.835938 169.589844 239.503906 169.414062 236.828125 C 169.273438 234.597656 168.765625 232.667969 167.933594 230.601562 C 167.191406 228.738281 166.367188 226.5 164.691406 225.261719 C 163.195312 224.175781 161.511719 225.464844 161.226562 226.992188 Z M 161.226562 226.992188 " fill-opacity="1" fill-rule="nonzero"/></g></g></g><g clip-path="url(#3b55087bd8)"><g clip-path="url(#dfa2fc2a86)"><g clip-path="url(#708c8029c4)"><path fill="#fbc278" d="M 122.050781 273.898438 C 123.078125 277.898438 126.121094 281.078125 129.21875 283.648438 C 132.277344 286.175781 135.832031 288.136719 139.574219 289.449219 C 146.707031 291.945312 154.6875 292.277344 162.042969 290.570312 C 169.503906 288.835938 176.636719 285.207031 182.117188 279.820312 C 187.578125 274.472656 191.570312 267.714844 193.816406 260.394531 C 195.050781 256.363281 195.773438 252.132812 195.933594 247.917969 C 196.035156 245.734375 195.984375 243.507812 195.746094 241.332031 C 195.492188 239.1875 195.257812 236.726562 194.042969 234.910156 C 192.882812 233.191406 190.492188 233.570312 190.121094 235.691406 C 189.824219 237.390625 190.207031 239.070312 190.320312 240.796875 C 190.425781 242.5 190.503906 244.207031 190.46875 245.921875 C 190.417969 249.195312 190.027344 252.484375 189.234375 255.652344 C 187.648438 262.082031 184.714844 268.261719 180.324219 273.285156 C 171.621094 283.195312 157.507812 288.144531 144.507812 285.464844 C 140.714844 284.679688 136.996094 283.246094 133.710938 281.234375 C 129.984375 278.953125 127.355469 275.828125 124.363281 272.71875 C 123.496094 271.851562 121.703125 272.546875 122.050781 273.898438 Z M 122.050781 273.898438 " fill-opacity="1" fill-rule="nonzero"/></g></g></g><g fill="#ffffff" fill-opacity="1"><g transform="translate(166.057427, 206.554667)"><g><path d="M 3.578125 -33.375 C 4.867188 -33.625 6.457031 -33.863281 8.34375 -34.09375 C 10.226562 -34.320312 12.300781 -34.4375 14.5625 -34.4375 C 17.101562 -34.4375 19.363281 -34.039062 21.34375 -33.25 C 23.332031 -32.457031 25.019531 -31.332031 26.40625 -29.875 C 27.789062 -28.425781 28.84375 -26.671875 29.5625 -24.609375 C 30.289062 -22.546875 30.65625 -20.257812 30.65625 -17.75 C 30.65625 -15.101562 30.242188 -12.660156 29.421875 -10.421875 C 28.597656 -8.179688 27.4375 -6.242188 25.9375 -4.609375 C 24.445312 -2.984375 22.648438 -1.710938 20.546875 -0.796875 C 18.453125 0.117188 16.117188 0.578125 13.546875 0.578125 C 11.316406 0.578125 9.335938 0.519531 7.609375 0.40625 C 5.890625 0.289062 4.5 0.15625 3.4375 0 C 3.46875 -1.550781 3.503906 -2.910156 3.546875 -4.078125 C 3.597656 -5.253906 3.640625 -6.476562 3.671875 -7.75 C 3.703125 -9.03125 3.734375 -10.492188 3.765625 -12.140625 C 3.804688 -13.785156 3.828125 -15.847656 3.828125 -18.328125 C 3.828125 -20.804688 3.804688 -23.28125 3.765625 -25.75 C 3.734375 -28.21875 3.671875 -30.757812 3.578125 -33.375 Z M 13.875 -30.078125 C 13.332031 -30.078125 12.742188 -30.019531 12.109375 -29.90625 C 11.484375 -29.789062 10.847656 -29.65625 10.203125 -29.5 C 10.140625 -27.945312 10.109375 -26.203125 10.109375 -24.265625 C 10.109375 -22.335938 10.109375 -19.988281 10.109375 -17.21875 C 10.109375 -14.34375 10.109375 -11.859375 10.109375 -9.765625 C 10.109375 -7.671875 10.125 -5.707031 10.15625 -3.875 C 10.832031 -3.550781 11.570312 -3.390625 12.375 -3.390625 C 14.019531 -3.390625 15.5625 -3.644531 17 -4.15625 C 18.4375 -4.675781 19.6875 -5.5 20.75 -6.625 C 21.8125 -7.75 22.648438 -9.191406 23.265625 -10.953125 C 23.878906 -12.710938 24.1875 -14.847656 24.1875 -17.359375 C 24.1875 -19.804688 23.953125 -21.84375 23.484375 -23.46875 C 23.015625 -25.101562 22.328125 -26.410156 21.421875 -27.390625 C 20.515625 -28.378906 19.425781 -29.070312 18.15625 -29.46875 C 16.882812 -29.875 15.457031 -30.078125 13.875 -30.078125 Z M 13.875 -30.078125 "/></g></g></g><g fill="#ffffff" fill-opacity="1"><g transform="translate(199.472583, 206.554667)"><g><path d="M 22.6875 -14.9375 L 10.109375 -14.9375 C 10.109375 -12.90625 10.109375 -11.0625 10.109375 -9.40625 C 10.109375 -7.75 10.125 -6.191406 10.15625 -4.734375 L 25.09375 -4.734375 L 25.09375 0 L 3.4375 0 C 3.46875 -1.550781 3.503906 -2.910156 3.546875 -4.078125 C 3.597656 -5.253906 3.640625 -6.476562 3.671875 -7.75 C 3.703125 -9.03125 3.734375 -10.492188 3.765625 -12.140625 C 3.804688 -13.785156 3.828125 -15.847656 3.828125 -18.328125 C 3.828125 -20.804688 3.804688 -23.359375 3.765625 -25.984375 C 3.734375 -28.617188 3.671875 -31.242188 3.578125 -33.859375 L 24.1875 -33.859375 L 24.1875 -29.109375 L 10.203125 -29.109375 C 10.140625 -27.847656 10.109375 -26.421875 10.109375 -24.828125 C 10.109375 -23.234375 10.109375 -21.421875 10.109375 -19.390625 L 22.6875 -19.390625 Z M 22.6875 -14.9375 "/></g></g></g><g fill="#ffffff" fill-opacity="1"><g transform="translate(227.084815, 206.554667)"><g><path d="M 31.234375 -33.859375 C 31.140625 -32.816406 31.066406 -31.753906 31.015625 -30.671875 C 30.972656 -29.597656 30.941406 -28.40625 30.921875 -27.09375 C 30.910156 -25.789062 30.894531 -24.332031 30.875 -22.71875 C 30.863281 -21.113281 30.859375 -19.28125 30.859375 -17.21875 C 30.859375 -15.28125 30.859375 -13.53125 30.859375 -11.96875 C 30.859375 -10.40625 30.863281 -8.945312 30.875 -7.59375 C 30.894531 -6.238281 30.910156 -4.945312 30.921875 -3.71875 C 30.941406 -2.5 30.96875 -1.257812 31 0 L 21.28125 0.578125 C 19.113281 -3.742188 17.023438 -8.34375 15.015625 -13.21875 C 13.003906 -18.101562 11.222656 -23.046875 9.671875 -28.046875 C 9.671875 -27.429688 9.660156 -26.695312 9.640625 -25.84375 C 9.628906 -24.988281 9.625 -24.078125 9.625 -23.109375 C 9.625 -22.148438 9.625 -21.160156 9.625 -20.140625 C 9.625 -19.128906 9.625 -18.15625 9.625 -17.21875 C 9.625 -15.28125 9.640625 -13.53125 9.671875 -11.96875 C 9.703125 -10.40625 9.734375 -8.945312 9.765625 -7.59375 C 9.796875 -6.238281 9.835938 -4.945312 9.890625 -3.71875 C 9.941406 -2.5 9.984375 -1.257812 10.015625 0 L 3.4375 0 C 3.46875 -1.550781 3.503906 -2.910156 3.546875 -4.078125 C 3.597656 -5.253906 3.640625 -6.476562 3.671875 -7.75 C 3.703125 -9.03125 3.734375 -10.492188 3.765625 -12.140625 C 3.804688 -13.785156 3.828125 -15.847656 3.828125 -18.328125 C 3.828125 -20.804688 3.804688 -23.28125 3.765625 -25.75 C 3.734375 -28.21875 3.671875 -30.757812 3.578125 -33.375 L 14.265625 -34.4375 C 15.265625 -30.207031 16.625 -25.578125 18.34375 -20.546875 C 20.070312 -15.523438 22.242188 -10.109375 24.859375 -4.296875 C 24.921875 -5.847656 24.96875 -7.785156 25 -10.109375 C 25.03125 -12.429688 25.046875 -15.171875 25.046875 -18.328125 C 25.046875 -20.804688 24.988281 -23.28125 24.875 -25.75 C 24.769531 -28.21875 24.664062 -30.757812 24.5625 -33.375 Z M 31.234375 -33.859375 "/></g></g></g><g fill="#ffffff" fill-opacity="1"><g transform="translate(262.676067, 206.554667)"><g><path d="M 26.109375 -29.109375 L 16.53125 -29.109375 C 16.46875 -27.597656 16.4375 -25.898438 16.4375 -24.015625 C 16.4375 -22.128906 16.4375 -19.863281 16.4375 -17.21875 C 16.4375 -15.28125 16.4375 -13.53125 16.4375 -11.96875 C 16.4375 -10.40625 16.441406 -8.945312 16.453125 -7.59375 C 16.472656 -6.238281 16.488281 -4.945312 16.5 -3.71875 C 16.519531 -2.5 16.550781 -1.257812 16.59375 0 L 9.765625 0 C 9.796875 -1.550781 9.835938 -2.910156 9.890625 -4.078125 C 9.941406 -5.253906 9.984375 -6.476562 10.015625 -7.75 C 10.046875 -9.03125 10.078125 -10.492188 10.109375 -12.140625 C 10.140625 -13.785156 10.15625 -15.847656 10.15625 -18.328125 C 10.15625 -20.128906 10.15625 -21.914062 10.15625 -23.6875 C 10.15625 -25.46875 10.125 -27.273438 10.0625 -29.109375 L 0.484375 -29.109375 L 0.484375 -33.859375 L 26.109375 -33.859375 Z M 26.109375 -29.109375 "/></g></g></g><g fill="#ffffff" fill-opacity="1"><g transform="translate(290.239946, 206.554667)"><g><path d="M 0.578125 0.578125 C 1.453125 -2.671875 2.332031 -5.785156 3.21875 -8.765625 C 4.101562 -11.753906 5.03125 -14.648438 6 -17.453125 C 6.96875 -20.265625 8.003906 -23.023438 9.109375 -25.734375 C 10.222656 -28.441406 11.425781 -31.148438 12.71875 -33.859375 L 18.765625 -34.4375 C 20.054688 -31.757812 21.25 -29.082031 22.34375 -26.40625 C 23.4375 -23.726562 24.472656 -20.976562 25.453125 -18.15625 C 26.441406 -15.332031 27.378906 -12.421875 28.265625 -9.421875 C 29.148438 -6.429688 30.03125 -3.289062 30.90625 0 L 24.328125 0.578125 C 23.867188 -1.128906 23.414062 -2.84375 22.96875 -4.5625 C 22.519531 -6.289062 22.066406 -8.023438 21.609375 -9.765625 L 9.671875 -9.765625 C 9.222656 -8.191406 8.785156 -6.597656 8.359375 -4.984375 C 7.941406 -3.367188 7.554688 -1.707031 7.203125 0 Z M 15.765625 -28.390625 C 13.890625 -23.804688 12.257812 -19.082031 10.875 -14.21875 L 20.40625 -14.21875 C 19.695312 -16.632812 18.960938 -19.035156 18.203125 -21.421875 C 17.453125 -23.804688 16.640625 -26.128906 15.765625 -28.390625 Z M 15.765625 -28.390625 "/></g></g></g><g fill="#ffffff" fill-opacity="1"><g transform="translate(322.736298, 206.554667)"><g><path d="M 22.78125 0 L 3.4375 0 C 3.46875 -1.550781 3.503906 -2.910156 3.546875 -4.078125 C 3.597656 -5.253906 3.640625 -6.476562 3.671875 -7.75 C 3.703125 -9.03125 3.734375 -10.492188 3.765625 -12.140625 C 3.804688 -13.785156 3.828125 -15.847656 3.828125 -18.328125 C 3.828125 -20.804688 3.804688 -23.28125 3.765625 -25.75 C 3.734375 -28.21875 3.671875 -30.757812 3.578125 -33.375 L 10.5 -33.859375 C 10.394531 -32.816406 10.316406 -31.753906 10.265625 -30.671875 C 10.222656 -29.597656 10.191406 -28.40625 10.171875 -27.09375 C 10.160156 -25.789062 10.144531 -24.332031 10.125 -22.71875 C 10.113281 -21.113281 10.109375 -19.28125 10.109375 -17.21875 C 10.109375 -14.570312 10.109375 -12.265625 10.109375 -10.296875 C 10.109375 -8.328125 10.125 -6.472656 10.15625 -4.734375 L 22.78125 -4.734375 Z M 22.78125 0 "/></g></g></g><g fill="#ffffff" fill-opacity="1"><g transform="translate(210.027267, 246.67915)"><g><path d="M 2.03125 -15.515625 C 2.03125 -21.898438 3.328125 -26.648438 5.921875 -29.765625 C 8.515625 -32.878906 12.179688 -34.4375 16.921875 -34.4375 C 18.378906 -34.4375 19.582031 -34.335938 20.53125 -34.140625 C 21.476562 -33.953125 22.359375 -33.859375 23.171875 -33.859375 C 23.710938 -33.859375 24.253906 -33.90625 24.796875 -34 C 25.347656 -34.09375 25.929688 -34.222656 26.546875 -34.390625 L 27.078125 -22.09375 L 21.671875 -21.46875 C 21.703125 -21.957031 21.722656 -22.414062 21.734375 -22.84375 C 21.753906 -23.28125 21.765625 -23.691406 21.765625 -24.078125 C 21.765625 -26.078125 21.410156 -27.625 20.703125 -28.71875 C 19.992188 -29.820312 18.71875 -30.375 16.875 -30.375 C 11.195312 -30.375 8.359375 -25.84375 8.359375 -16.78125 C 8.359375 -14.625 8.546875 -12.785156 8.921875 -11.265625 C 9.296875 -9.753906 9.851562 -8.519531 10.59375 -7.5625 C 11.332031 -6.613281 12.257812 -5.921875 13.375 -5.484375 C 14.488281 -5.054688 15.769531 -4.84375 17.21875 -4.84375 C 18.789062 -4.84375 20.351562 -5.070312 21.90625 -5.53125 C 23.457031 -6 24.957031 -6.507812 26.40625 -7.0625 L 26.40625 -1.9375 C 24.957031 -1 23.265625 -0.347656 21.328125 0.015625 C 19.390625 0.390625 17.519531 0.578125 15.71875 0.578125 C 13.914062 0.578125 12.179688 0.378906 10.515625 -0.015625 C 8.859375 -0.421875 7.398438 -1.210938 6.140625 -2.390625 C 4.878906 -3.566406 3.878906 -5.203125 3.140625 -7.296875 C 2.398438 -9.398438 2.03125 -12.140625 2.03125 -15.515625 Z M 2.03125 -15.515625 "/></g></g></g><g fill="#ffffff" fill-opacity="1"><g transform="translate(240.154101, 246.67915)"><g><path d="M 0.578125 0.578125 C 1.453125 -2.671875 2.332031 -5.785156 3.21875 -8.765625 C 4.101562 -11.753906 5.03125 -14.648438 6 -17.453125 C 6.96875 -20.265625 8.003906 -23.023438 9.109375 -25.734375 C 10.222656 -28.441406 11.425781 -31.148438 12.71875 -33.859375 L 18.765625 -34.4375 C 20.054688 -31.757812 21.25 -29.082031 22.34375 -26.40625 C 23.4375 -23.726562 24.472656 -20.976562 25.453125 -18.15625 C 26.441406 -15.332031 27.378906 -12.421875 28.265625 -9.421875 C 29.148438 -6.429688 30.03125 -3.289062 30.90625 0 L 24.328125 0.578125 C 23.867188 -1.128906 23.414062 -2.84375 22.96875 -4.5625 C 22.519531 -6.289062 22.066406 -8.023438 21.609375 -9.765625 L 9.671875 -9.765625 C 9.222656 -8.191406 8.785156 -6.597656 8.359375 -4.984375 C 7.941406 -3.367188 7.554688 -1.707031 7.203125 0 Z M 15.765625 -28.390625 C 13.890625 -23.804688 12.257812 -19.082031 10.875 -14.21875 L 20.40625 -14.21875 C 19.695312 -16.632812 18.960938 -19.035156 18.203125 -21.421875 C 17.453125 -23.804688 16.640625 -26.128906 15.765625 -28.390625 Z M 15.765625 -28.390625 "/></g></g></g><g fill="#ffffff" fill-opacity="1"><g transform="translate(272.650457, 246.67915)"><g><path d="M 3.578125 -33.375 C 5.023438 -33.625 6.660156 -33.851562 8.484375 -34.0625 C 10.304688 -34.28125 12.070312 -34.390625 13.78125 -34.390625 C 16.519531 -34.390625 18.769531 -34.097656 20.53125 -33.515625 C 22.289062 -32.929688 23.664062 -32.179688 24.65625 -31.265625 C 25.65625 -30.347656 26.34375 -29.316406 26.71875 -28.171875 C 27.09375 -27.023438 27.28125 -25.890625 27.28125 -24.765625 C 27.28125 -22.734375 26.816406 -20.96875 25.890625 -19.46875 C 24.972656 -17.96875 23.675781 -16.78125 22 -15.90625 C 23 -15.425781 23.828125 -14.867188 24.484375 -14.234375 C 25.148438 -13.609375 25.675781 -12.84375 26.0625 -11.9375 C 26.445312 -11.039062 26.710938 -9.96875 26.859375 -8.71875 C 27.003906 -7.476562 27.078125 -6.039062 27.078125 -4.40625 C 27.078125 -3.082031 27.03125 -1.613281 26.9375 0 L 20.21875 0.578125 C 20.3125 -0.484375 20.390625 -1.5 20.453125 -2.46875 C 20.515625 -3.4375 20.546875 -4.351562 20.546875 -5.21875 C 20.546875 -6.632812 20.429688 -7.875 20.203125 -8.9375 C 19.984375 -10.007812 19.582031 -10.90625 19 -11.625 C 18.425781 -12.351562 17.644531 -12.894531 16.65625 -13.25 C 15.675781 -13.601562 14.410156 -13.78125 12.859375 -13.78125 C 12.503906 -13.78125 12.082031 -13.769531 11.59375 -13.75 C 11.113281 -13.738281 10.617188 -13.703125 10.109375 -13.640625 C 10.109375 -10.960938 10.113281 -8.539062 10.125 -6.375 C 10.144531 -4.21875 10.1875 -2.09375 10.25 0 L 3.4375 0 C 3.5 -1.550781 3.550781 -2.910156 3.59375 -4.078125 C 3.644531 -5.253906 3.6875 -6.476562 3.71875 -7.75 C 3.75 -9.03125 3.773438 -10.457031 3.796875 -12.03125 C 3.816406 -13.613281 3.828125 -15.582031 3.828125 -17.9375 C 3.828125 -20.644531 3.804688 -23.238281 3.765625 -25.71875 C 3.734375 -28.207031 3.671875 -30.757812 3.578125 -33.375 Z M 14.40625 -30.078125 C 13.757812 -30.078125 13.082031 -30.019531 12.375 -29.90625 C 11.664062 -29.789062 10.941406 -29.640625 10.203125 -29.453125 C 10.140625 -28.097656 10.109375 -26.570312 10.109375 -24.875 C 10.109375 -23.1875 10.109375 -21.148438 10.109375 -18.765625 L 10.109375 -18.140625 C 11.015625 -17.941406 12.0625 -17.84375 13.25 -17.84375 C 15.664062 -17.84375 17.539062 -18.363281 18.875 -19.40625 C 20.21875 -20.457031 20.890625 -22 20.890625 -24.03125 C 20.890625 -25.90625 20.316406 -27.378906 19.171875 -28.453125 C 18.023438 -29.535156 16.4375 -30.078125 14.40625 -30.078125 Z M 14.40625 -30.078125 "/></g></g></g><g fill="#ffffff" fill-opacity="1"><g transform="translate(303.212521, 246.67915)"><g><path d="M 22.6875 -14.9375 L 10.109375 -14.9375 C 10.109375 -12.90625 10.109375 -11.0625 10.109375 -9.40625 C 10.109375 -7.75 10.125 -6.191406 10.15625 -4.734375 L 25.09375 -4.734375 L 25.09375 0 L 3.4375 0 C 3.46875 -1.550781 3.503906 -2.910156 3.546875 -4.078125 C 3.597656 -5.253906 3.640625 -6.476562 3.671875 -7.75 C 3.703125 -9.03125 3.734375 -10.492188 3.765625 -12.140625 C 3.804688 -13.785156 3.828125 -15.847656 3.828125 -18.328125 C 3.828125 -20.804688 3.804688 -23.359375 3.765625 -25.984375 C 3.734375 -28.617188 3.671875 -31.242188 3.578125 -33.859375 L 24.1875 -33.859375 L 24.1875 -29.109375 L 10.203125 -29.109375 C 10.140625 -27.847656 10.109375 -26.421875 10.109375 -24.828125 C 10.109375 -23.234375 10.109375 -21.421875 10.109375 -19.390625 L 22.6875 -19.390625 Z M 22.6875 -14.9375 "/></g></g></g><g fill="#ffffff" fill-opacity="1"><g transform="translate(108.523089, 160.72666)"><g><path d="M 3.578125 -33.375 C 4.867188 -33.625 6.457031 -33.863281 8.34375 -34.09375 C 10.226562 -34.320312 12.300781 -34.4375 14.5625 -34.4375 C 17.101562 -34.4375 19.363281 -34.039062 21.34375 -33.25 C 23.332031 -32.457031 25.019531 -31.332031 26.40625 -29.875 C 27.789062 -28.425781 28.84375 -26.671875 29.5625 -24.609375 C 30.289062 -22.546875 30.65625 -20.257812 30.65625 -17.75 C 30.65625 -15.101562 30.242188 -12.660156 29.421875 -10.421875 C 28.597656 -8.179688 27.4375 -6.242188 25.9375 -4.609375 C 24.445312 -2.984375 22.648438 -1.710938 20.546875 -0.796875 C 18.453125 0.117188 16.117188 0.578125 13.546875 0.578125 C 11.316406 0.578125 9.335938 0.519531 7.609375 0.40625 C 5.890625 0.289062 4.5 0.15625 3.4375 0 C 3.46875 -1.550781 3.503906 -2.910156 3.546875 -4.078125 C 3.597656 -5.253906 3.640625 -6.476562 3.671875 -7.75 C 3.703125 -9.03125 3.734375 -10.492188 3.765625 -12.140625 C 3.804688 -13.785156 3.828125 -15.847656 3.828125 -18.328125 C 3.828125 -20.804688 3.804688 -23.28125 3.765625 -25.75 C 3.734375 -28.21875 3.671875 -30.757812 3.578125 -33.375 Z M 13.875 -30.078125 C 13.332031 -30.078125 12.742188 -30.019531 12.109375 -29.90625 C 11.484375 -29.789062 10.847656 -29.65625 10.203125 -29.5 C 10.140625 -27.945312 10.109375 -26.203125 10.109375 -24.265625 C 10.109375 -22.335938 10.109375 -19.988281 10.109375 -17.21875 C 10.109375 -14.34375 10.109375 -11.859375 10.109375 -9.765625 C 10.109375 -7.671875 10.125 -5.707031 10.15625 -3.875 C 10.832031 -3.550781 11.570312 -3.390625 12.375 -3.390625 C 14.019531 -3.390625 15.5625 -3.644531 17 -4.15625 C 18.4375 -4.675781 19.6875 -5.5 20.75 -6.625 C 21.8125 -7.75 22.648438 -9.191406 23.265625 -10.953125 C 23.878906 -12.710938 24.1875 -14.847656 24.1875 -17.359375 C 24.1875 -19.804688 23.953125 -21.84375 23.484375 -23.46875 C 23.015625 -25.101562 22.328125 -26.410156 21.421875 -27.390625 C 20.515625 -28.378906 19.425781 -29.070312 18.15625 -29.46875 C 16.882812 -29.875 15.457031 -30.078125 13.875 -30.078125 Z M 13.875 -30.078125 "/></g></g></g><g fill="#ffffff" fill-opacity="1"><g transform="translate(141.938245, 160.72666)"><g><path d="M 22.6875 -14.9375 L 10.109375 -14.9375 C 10.109375 -12.90625 10.109375 -11.0625 10.109375 -9.40625 C 10.109375 -7.75 10.125 -6.191406 10.15625 -4.734375 L 25.09375 -4.734375 L 25.09375 0 L 3.4375 0 C 3.46875 -1.550781 3.503906 -2.910156 3.546875 -4.078125 C 3.597656 -5.253906 3.640625 -6.476562 3.671875 -7.75 C 3.703125 -9.03125 3.734375 -10.492188 3.765625 -12.140625 C 3.804688 -13.785156 3.828125 -15.847656 3.828125 -18.328125 C 3.828125 -20.804688 3.804688 -23.359375 3.765625 -25.984375 C 3.734375 -28.617188 3.671875 -31.242188 3.578125 -33.859375 L 24.1875 -33.859375 L 24.1875 -29.109375 L 10.203125 -29.109375 C 10.140625 -27.847656 10.109375 -26.421875 10.109375 -24.828125 C 10.109375 -23.234375 10.109375 -21.421875 10.109375 -19.390625 L 22.6875 -19.390625 Z M 22.6875 -14.9375 "/></g></g></g><g fill="#ffffff" fill-opacity="1"><g transform="translate(169.550477, 160.72666)"><g><path d="M 22.78125 0 L 3.4375 0 C 3.46875 -1.550781 3.503906 -2.910156 3.546875 -4.078125 C 3.597656 -5.253906 3.640625 -6.476562 3.671875 -7.75 C 3.703125 -9.03125 3.734375 -10.492188 3.765625 -12.140625 C 3.804688 -13.785156 3.828125 -15.847656 3.828125 -18.328125 C 3.828125 -20.804688 3.804688 -23.28125 3.765625 -25.75 C 3.734375 -28.21875 3.671875 -30.757812 3.578125 -33.375 L 10.5 -33.859375 C 10.394531 -32.816406 10.316406 -31.753906 10.265625 -30.671875 C 10.222656 -29.597656 10.191406 -28.40625 10.171875 -27.09375 C 10.160156 -25.789062 10.144531 -24.332031 10.125 -22.71875 C 10.113281 -21.113281 10.109375 -19.28125 10.109375 -17.21875 C 10.109375 -14.570312 10.109375 -12.265625 10.109375 -10.296875 C 10.109375 -8.328125 10.125 -6.472656 10.15625 -4.734375 L 22.78125 -4.734375 Z M 22.78125 0 "/></g></g></g><g fill="#ffffff" fill-opacity="1"><g transform="translate(193.826044, 160.72666)"><g><path d="M 10.5 -33.859375 C 10.394531 -32.816406 10.316406 -31.753906 10.265625 -30.671875 C 10.222656 -29.597656 10.191406 -28.40625 10.171875 -27.09375 C 10.160156 -25.789062 10.144531 -24.332031 10.125 -22.71875 C 10.113281 -21.113281 10.109375 -19.28125 10.109375 -17.21875 C 10.109375 -15.28125 10.109375 -13.53125 10.109375 -11.96875 C 10.109375 -10.40625 10.113281 -8.945312 10.125 -7.59375 C 10.144531 -6.238281 10.160156 -4.945312 10.171875 -3.71875 C 10.191406 -2.5 10.21875 -1.257812 10.25 0 L 3.4375 0 C 3.46875 -1.550781 3.503906 -2.910156 3.546875 -4.078125 C 3.597656 -5.253906 3.640625 -6.476562 3.671875 -7.75 C 3.703125 -9.03125 3.734375 -10.492188 3.765625 -12.140625 C 3.804688 -13.785156 3.828125 -15.847656 3.828125 -18.328125 C 3.828125 -20.804688 3.804688 -23.28125 3.765625 -25.75 C 3.734375 -28.21875 3.671875 -30.757812 3.578125 -33.375 Z M 10.5 -33.859375 "/></g></g></g><g fill="#ffffff" fill-opacity="1"><g transform="translate(208.671846, 160.72666)"><g><path d="M 29.40625 -34.4375 C 28.625 -31.175781 27.820312 -28.050781 27 -25.0625 C 26.1875 -22.082031 25.328125 -19.191406 24.421875 -16.390625 C 23.515625 -13.585938 22.550781 -10.832031 21.53125 -8.125 C 20.519531 -5.414062 19.421875 -2.707031 18.234375 0 L 12.1875 0.578125 C 10.988281 -2.066406 9.878906 -4.734375 8.859375 -7.421875 C 7.847656 -10.117188 6.890625 -12.875 5.984375 -15.6875 C 5.085938 -18.507812 4.226562 -21.421875 3.40625 -24.421875 C 2.582031 -27.421875 1.785156 -30.566406 1.015625 -33.859375 L 7.59375 -34.4375 C 8.71875 -29.625 9.859375 -24.734375 11.015625 -19.765625 C 12.179688 -14.804688 13.570312 -10.039062 15.1875 -5.46875 C 15.988281 -7.6875 16.734375 -9.914062 17.421875 -12.15625 C 18.117188 -14.394531 18.765625 -16.691406 19.359375 -19.046875 C 19.960938 -21.398438 20.546875 -23.800781 21.109375 -26.25 C 21.671875 -28.707031 22.226562 -31.242188 22.78125 -33.859375 Z M 29.40625 -34.4375 "/></g></g></g><g fill="#ffffff" fill-opacity="1"><g transform="translate(240.00762, 160.72666)"><g><path d="M 22.6875 -14.9375 L 10.109375 -14.9375 C 10.109375 -12.90625 10.109375 -11.0625 10.109375 -9.40625 C 10.109375 -7.75 10.125 -6.191406 10.15625 -4.734375 L 25.09375 -4.734375 L 25.09375 0 L 3.4375 0 C 3.46875 -1.550781 3.503906 -2.910156 3.546875 -4.078125 C 3.597656 -5.253906 3.640625 -6.476562 3.671875 -7.75 C 3.703125 -9.03125 3.734375 -10.492188 3.765625 -12.140625 C 3.804688 -13.785156 3.828125 -15.847656 3.828125 -18.328125 C 3.828125 -20.804688 3.804688 -23.359375 3.765625 -25.984375 C 3.734375 -28.617188 3.671875 -31.242188 3.578125 -33.859375 L 24.1875 -33.859375 L 24.1875 -29.109375 L 10.203125 -29.109375 C 10.140625 -27.847656 10.109375 -26.421875 10.109375 -24.828125 C 10.109375 -23.234375 10.109375 -21.421875 10.109375 -19.390625 L 22.6875 -19.390625 Z M 22.6875 -14.9375 "/></g></g></g><g fill="#ffffff" fill-opacity="1"><g transform="translate(267.619847, 160.72666)"><g><path d="M 3.578125 -33.375 C 5.023438 -33.625 6.660156 -33.851562 8.484375 -34.0625 C 10.304688 -34.28125 12.070312 -34.390625 13.78125 -34.390625 C 16.519531 -34.390625 18.769531 -34.097656 20.53125 -33.515625 C 22.289062 -32.929688 23.664062 -32.179688 24.65625 -31.265625 C 25.65625 -30.347656 26.34375 -29.316406 26.71875 -28.171875 C 27.09375 -27.023438 27.28125 -25.890625 27.28125 -24.765625 C 27.28125 -22.734375 26.816406 -20.96875 25.890625 -19.46875 C 24.972656 -17.96875 23.675781 -16.78125 22 -15.90625 C 23 -15.425781 23.828125 -14.867188 24.484375 -14.234375 C 25.148438 -13.609375 25.675781 -12.84375 26.0625 -11.9375 C 26.445312 -11.039062 26.710938 -9.96875 26.859375 -8.71875 C 27.003906 -7.476562 27.078125 -6.039062 27.078125 -4.40625 C 27.078125 -3.082031 27.03125 -1.613281 26.9375 0 L 20.21875 0.578125 C 20.3125 -0.484375 20.390625 -1.5 20.453125 -2.46875 C 20.515625 -3.4375 20.546875 -4.351562 20.546875 -5.21875 C 20.546875 -6.632812 20.429688 -7.875 20.203125 -8.9375 C 19.984375 -10.007812 19.582031 -10.90625 19 -11.625 C 18.425781 -12.351562 17.644531 -12.894531 16.65625 -13.25 C 15.675781 -13.601562 14.410156 -13.78125 12.859375 -13.78125 C 12.503906 -13.78125 12.082031 -13.769531 11.59375 -13.75 C 11.113281 -13.738281 10.617188 -13.703125 10.109375 -13.640625 C 10.109375 -10.960938 10.113281 -8.539062 10.125 -6.375 C 10.144531 -4.21875 10.1875 -2.09375 10.25 0 L 3.4375 0 C 3.5 -1.550781 3.550781 -2.910156 3.59375 -4.078125 C 3.644531 -5.253906 3.6875 -6.476562 3.71875 -7.75 C 3.75 -9.03125 3.773438 -10.457031 3.796875 -12.03125 C 3.816406 -13.613281 3.828125 -15.582031 3.828125 -17.9375 C 3.828125 -20.644531 3.804688 -23.238281 3.765625 -25.71875 C 3.734375 -28.207031 3.671875 -30.757812 3.578125 -33.375 Z M 14.40625 -30.078125 C 13.757812 -30.078125 13.082031 -30.019531 12.375 -29.90625 C 11.664062 -29.789062 10.941406 -29.640625 10.203125 -29.453125 C 10.140625 -28.097656 10.109375 -26.570312 10.109375 -24.875 C 10.109375 -23.1875 10.109375 -21.148438 10.109375 -18.765625 L 10.109375 -18.140625 C 11.015625 -17.941406 12.0625 -17.84375 13.25 -17.84375 C 15.664062 -17.84375 17.539062 -18.363281 18.875 -19.40625 C 20.21875 -20.457031 20.890625 -22 20.890625 -24.03125 C 20.890625 -25.90625 20.316406 -27.378906 19.171875 -28.453125 C 18.023438 -29.535156 16.4375 -30.078125 14.40625 -30.078125 Z M 14.40625 -30.078125 "/></g></g></g><g fill="#ffffff" fill-opacity="1"><g transform="translate(298.181903, 160.72666)"><g><path d="M 22.6875 -14.9375 L 10.109375 -14.9375 C 10.109375 -12.90625 10.109375 -11.0625 10.109375 -9.40625 C 10.109375 -7.75 10.125 -6.191406 10.15625 -4.734375 L 25.09375 -4.734375 L 25.09375 0 L 3.4375 0 C 3.46875 -1.550781 3.503906 -2.910156 3.546875 -4.078125 C 3.597656 -5.253906 3.640625 -6.476562 3.671875 -7.75 C 3.703125 -9.03125 3.734375 -10.492188 3.765625 -12.140625 C 3.804688 -13.785156 3.828125 -15.847656 3.828125 -18.328125 C 3.828125 -20.804688 3.804688 -23.359375 3.765625 -25.984375 C 3.734375 -28.617188 3.671875 -31.242188 3.578125 -33.859375 L 24.1875 -33.859375 L 24.1875 -29.109375 L 10.203125 -29.109375 C 10.140625 -27.847656 10.109375 -26.421875 10.109375 -24.828125 C 10.109375 -23.234375 10.109375 -21.421875 10.109375 -19.390625 L 22.6875 -19.390625 Z M 22.6875 -14.9375 "/></g></g></g><g fill="#ffffff" fill-opacity="1"><g transform="translate(325.79413, 160.72666)"><g><path d="M 3.578125 -33.375 C 4.867188 -33.625 6.457031 -33.863281 8.34375 -34.09375 C 10.226562 -34.320312 12.300781 -34.4375 14.5625 -34.4375 C 17.101562 -34.4375 19.363281 -34.039062 21.34375 -33.25 C 23.332031 -32.457031 25.019531 -31.332031 26.40625 -29.875 C 27.789062 -28.425781 28.84375 -26.671875 29.5625 -24.609375 C 30.289062 -22.546875 30.65625 -20.257812 30.65625 -17.75 C 30.65625 -15.101562 30.242188 -12.660156 29.421875 -10.421875 C 28.597656 -8.179688 27.4375 -6.242188 25.9375 -4.609375 C 24.445312 -2.984375 22.648438 -1.710938 20.546875 -0.796875 C 18.453125 0.117188 16.117188 0.578125 13.546875 0.578125 C 11.316406 0.578125 9.335938 0.519531 7.609375 0.40625 C 5.890625 0.289062 4.5 0.15625 3.4375 0 C 3.46875 -1.550781 3.503906 -2.910156 3.546875 -4.078125 C 3.597656 -5.253906 3.640625 -6.476562 3.671875 -7.75 C 3.703125 -9.03125 3.734375 -10.492188 3.765625 -12.140625 C 3.804688 -13.785156 3.828125 -15.847656 3.828125 -18.328125 C 3.828125 -20.804688 3.804688 -23.28125 3.765625 -25.75 C 3.734375 -28.21875 3.671875 -30.757812 3.578125 -33.375 Z M 13.875 -30.078125 C 13.332031 -30.078125 12.742188 -30.019531 12.109375 -29.90625 C 11.484375 -29.789062 10.847656 -29.65625 10.203125 -29.5 C 10.140625 -27.945312 10.109375 -26.203125 10.109375 -24.265625 C 10.109375 -22.335938 10.109375 -19.988281 10.109375 -17.21875 C 10.109375 -14.34375 10.109375 -11.859375 10.109375 -9.765625 C 10.109375 -7.671875 10.125 -5.707031 10.15625 -3.875 C 10.832031 -3.550781 11.570312 -3.390625 12.375 -3.390625 C 14.019531 -3.390625 15.5625 -3.644531 17 -4.15625 C 18.4375 -4.675781 19.6875 -5.5 20.75 -6.625 C 21.8125 -7.75 22.648438 -9.191406 23.265625 -10.953125 C 23.878906 -12.710938 24.1875 -14.847656 24.1875 -17.359375 C 24.1875 -19.804688 23.953125 -21.84375 23.484375 -23.46875 C 23.015625 -25.101562 22.328125 -26.410156 21.421875 -27.390625 C 20.515625 -28.378906 19.425781 -29.070312 18.15625 -29.46875 C 16.882812 -29.875 15.457031 -30.078125 13.875 -30.078125 Z M 13.875 -30.078125 "/></g></g></g></svg>