<svg version="1.1" id="Layer_1" xmlns="http://www.w3.org/2000/svg" xmlns:xlink="http://www.w3.org/1999/xlink" x="0px" y="0px"
	 width="100%" viewBox="0 0 500 500" enable-background="new 0 0 500 500" xml:space="preserve">
<path fill="#FFFFFF" opacity="1.000000" stroke="none" 
	d="
M239.000000,501.000000 
	C159.333359,501.000000 80.166702,501.000000 1.000042,501.000000 
	C1.000028,334.333405 1.000028,167.666779 1.000014,1.000132 
	C167.666565,1.000088 334.333130,1.000088 500.999756,1.000044 
	C500.999847,167.666519 500.999847,334.333038 500.999939,500.999786 
	C413.833344,501.000000 326.666656,501.000000 239.000000,501.000000 
M247.592224,284.341003 
	C247.592224,285.788727 247.592224,287.236420 247.592224,288.825378 
	C253.949249,288.825378 259.875763,288.825378 266.157867,288.825378 
	C266.157867,287.706299 266.279694,285.933350 266.140167,285.912537 
	C262.011993,285.296783 257.857910,284.854950 253.509918,284.363129 
	C253.509918,281.687317 253.509918,279.083954 253.509918,275.935669 
	C257.124878,275.935669 260.530426,275.935669 263.772583,275.935669 
	C264.944458,271.296295 261.975159,272.117798 259.788666,272.079987 
	C252.534882,271.954529 252.453262,271.864197 253.949509,263.830200 
	C256.981201,263.830200 260.125549,263.957825 263.246307,263.742981 
	C264.055115,263.687286 265.354309,262.601044 265.405304,261.912354 
	C265.459808,261.177032 264.327454,259.693817 263.672577,259.670349 
	C258.457214,259.483490 253.232224,259.566162 247.654694,259.566162 
	C247.654694,263.676849 247.654694,266.977844 246.996857,270.212341 
	C245.394730,271.910828 243.792618,273.609314 242.093475,274.417236 
	C241.609940,261.283112 231.477509,255.301834 218.625961,260.743500 
	C218.625961,269.942719 218.625961,279.217529 218.625961,289.514618 
	C223.779526,289.282166 228.804245,289.055511 234.219284,289.542236 
	C230.389633,296.271118 226.559967,302.999969 222.730301,309.728851 
	C225.212967,308.688995 227.101288,307.027802 228.744034,305.151581 
	C235.051636,297.947540 241.280487,290.674530 247.592224,284.341003 
M104.858658,257.721405 
	C112.392105,282.923737 120.442390,307.947937 133.213104,331.098602 
	C136.394043,336.864929 140.117691,342.543488 144.596466,347.320557 
	C148.768112,351.770020 152.816254,350.894470 156.052551,345.658325 
	C159.364304,340.300140 162.493927,334.757233 165.009476,328.992462 
	C172.882187,310.950897 182.901947,294.403412 197.434708,280.917969 
	C201.245316,277.381989 205.538284,274.365784 210.471603,270.421844 
	C203.285721,270.257141 197.482208,269.552521 191.916107,274.359344 
	C176.126022,287.995575 162.199814,302.833130 153.810974,322.397095 
	C150.027588,331.220459 145.492157,331.251312 139.674927,323.742218 
	C131.561859,313.269623 127.184280,301.124176 123.567940,288.590302 
	C116.081100,262.641632 109.282860,236.648849 112.872841,209.173370 
	C114.836060,194.148117 120.454124,181.862610 135.828430,176.553818 
	C146.476654,172.876968 156.843628,175.711655 167.070724,178.923950 
	C170.058868,179.862549 172.991409,180.978149 175.949448,182.012619 
	C164.314148,172.282257 151.468201,165.072052 137.162903,160.749252 
	C127.932404,157.959946 118.807274,157.324448 110.753250,164.231903 
	C104.516159,169.581085 99.506363,176.022568 98.249184,184.126480 
	C97.015862,192.076599 96.972565,200.274185 97.071869,208.355011 
	C97.274994,224.882919 99.740082,241.121048 104.858658,257.721405 
M164.337646,167.111633 
	C170.130234,170.024124 175.843735,173.109146 181.733780,175.809036 
	C190.783936,179.957458 200.065887,180.848587 209.892242,178.244308 
	C220.306839,175.484116 230.843140,172.728683 241.503464,171.459961 
	C256.287140,169.700470 266.414093,175.026962 268.745514,190.157562 
	C269.492920,195.008148 269.191101,200.174606 268.462219,205.061279 
	C267.442535,211.897919 265.573181,218.607849 264.066986,225.373627 
	C278.692139,228.116531 280.099365,227.304352 284.494690,213.763474 
	C284.853973,212.656586 285.255554,211.558975 285.537048,210.431976 
	C287.795471,201.390289 290.392487,192.285645 288.507233,182.904343 
	C285.404816,167.466095 275.407715,160.828110 257.604248,159.164780 
	C242.859100,157.787170 229.633148,164.061066 216.292236,169.103790 
	C202.937592,174.151688 189.983414,175.100403 176.969498,167.773941 
	C169.304001,163.458496 161.306320,159.626221 153.165298,156.291290 
	C144.403580,152.702133 135.172684,151.980026 125.740181,154.756882 
	C139.461823,155.539566 152.159897,159.357910 164.337646,167.111633 
M290.118744,272.468506 
	C290.118744,275.818146 290.118744,279.167786 290.118744,282.517426 
	C289.663574,282.585510 289.208435,282.653625 288.753265,282.721741 
	C285.989014,274.859222 283.224731,266.996674 280.405151,258.976837 
	C277.394073,259.367310 274.622131,259.726776 271.750366,260.099182 
	C271.750366,269.864319 271.750366,279.287994 271.750366,289.026062 
	C273.633453,288.938080 275.211853,288.864319 277.065857,288.777710 
	C277.065857,281.542877 277.065857,274.668396 277.065857,266.391205 
	C279.717529,272.856781 281.750458,278.050232 283.968170,283.163544 
	C287.017456,290.194275 287.077393,290.168274 295.347504,288.502869 
	C295.347504,279.115326 295.347504,269.676727 295.347504,259.755402 
	C293.564758,259.881073 291.865509,260.000885 290.104065,260.125061 
	C290.104065,264.188782 290.104065,267.839874 290.118744,272.468506 
M194.241776,356.646362 
	C188.734116,353.210907 183.226456,349.775482 177.305069,346.081970 
	C180.489609,356.732635 191.855103,363.285309 205.586884,362.926910 
	C221.650421,362.507660 235.933090,350.499481 240.113281,333.898712 
	C243.025269,322.334381 242.180283,315.122803 236.230850,311.748077 
	C236.230850,315.308472 236.107697,318.119110 236.250168,320.916168 
	C237.492218,345.302612 216.785843,362.363770 194.241776,356.646362 
M313.784180,237.575867 
	C313.784180,243.973099 313.784180,250.370331 313.784180,256.797028 
	C315.797333,256.797028 317.409821,256.797028 319.544861,256.797028 
	C319.544861,252.859634 319.544861,249.129929 319.544861,244.556274 
	C322.230499,245.278091 325.368103,245.236496 325.977142,246.456833 
	C327.578094,249.664795 328.078583,253.421967 329.130829,257.387695 
	C330.364014,257.237213 332.076141,257.028320 334.829773,256.692291 
	C333.742920,251.742966 332.760864,247.270706 331.592285,241.949020 
	C334.246826,239.458954 335.590454,235.357574 332.738464,230.910019 
	C330.027008,226.681656 321.013062,225.784943 313.775391,228.665649 
	C313.775391,231.303345 313.775391,233.954910 313.784180,237.575867 
M311.018463,320.248169 
	C311.215851,325.318481 314.515167,322.297119 317.145447,323.001923 
	C317.145447,318.679199 317.145447,314.955017 317.145447,310.472382 
	C319.842651,311.279205 322.988251,311.311523 323.619385,312.587494 
	C325.208740,315.800934 325.664093,319.575256 326.648468,323.415314 
	C327.926544,323.255066 329.532501,323.053680 332.287201,322.708282 
	C331.250000,317.917480 330.286407,313.466583 329.101715,307.994537 
	C331.409363,305.688019 333.745575,301.365936 330.338715,297.214325 
	C325.194946,290.946167 318.076416,293.030182 311.040375,294.080475 
	C311.040375,302.662903 311.040375,310.976685 311.018463,320.248169 
M175.861542,228.453720 
	C175.861542,237.867386 175.861542,247.281052 175.861542,257.099579 
	C178.719147,257.265961 181.521317,257.658051 184.303925,257.549408 
	C193.726913,257.181458 199.428345,250.518967 199.039413,240.556641 
	C198.693970,231.708191 193.100708,226.815125 183.457138,227.087570 
	C181.149261,227.152771 178.853561,227.648727 175.861542,228.453720 
M384.677948,231.941727 
	C378.900177,225.391357 371.686340,226.717804 364.274231,228.045914 
	C364.274231,237.787170 364.274231,247.321747 364.274231,256.922760 
	C371.943604,258.045624 379.375458,258.790741 384.454163,251.723236 
	C388.823029,245.643509 388.841125,239.083466 384.677948,231.941727 
M305.354095,323.066925 
	C305.659882,322.726410 306.295898,322.274384 306.223999,322.061432 
	C303.142548,312.936646 300.147491,303.777161 296.769684,294.761322 
	C295.766663,292.084106 291.249451,292.378387 290.074219,295.310425 
	C286.453369,304.344086 283.206940,313.527832 279.558655,323.343018 
	C283.623627,323.291992 286.604340,323.844940 286.898865,319.634827 
	C287.169159,315.772247 289.037109,314.462036 293.018616,314.512390 
	C296.886292,314.561310 299.473938,315.194153 299.789764,319.520264 
	C300.014954,322.605316 301.378754,324.168274 305.354095,323.066925 
M342.912964,266.516388 
	C342.179596,264.839722 341.515381,263.128479 340.697906,261.493866 
	C339.171967,258.442719 335.050934,257.959106 333.797913,261.001678 
	C330.044403,270.115692 326.784851,279.433136 322.964417,289.656006 
	C326.232086,289.225281 327.948669,288.998993 328.871460,288.877350 
	C331.535889,286.013977 329.189362,281.546417 334.192627,280.557251 
	C341.676422,279.077667 343.644806,283.505035 344.296051,289.576385 
	C346.491425,289.287079 348.081207,289.077576 350.423279,288.768921 
	C347.903015,281.329590 345.519684,274.294434 342.912964,266.516388 
M210.305679,246.482208 
	C211.383667,245.660019 212.379852,244.308517 213.556778,244.126648 
	C215.955582,243.755951 218.451782,244.015640 221.553238,244.015640 
	C219.605438,236.705017 213.337906,242.403503 210.526794,239.142746 
	C210.526794,237.029999 210.526794,234.738708 210.526794,231.832809 
	C213.858170,231.832809 217.001648,231.996414 220.107834,231.728149 
	C220.982605,231.652588 221.747986,230.310593 222.563553,229.549484 
	C221.805984,228.883820 221.067108,227.668137 220.287796,227.641663 
	C215.189941,227.468399 210.083359,227.552490 204.729111,227.552490 
	C204.729111,237.625534 204.729111,247.057678 204.729111,257.002350 
	C210.340378,257.002350 215.797028,257.140869 221.232147,256.861084 
	C222.101593,256.816315 222.874619,254.898376 224.538315,252.757706 
	C218.693954,252.757706 214.734497,252.757706 210.295319,252.757706 
	C210.295319,250.754547 210.295319,249.117126 210.305679,246.482208 
M347.529175,318.925110 
	C346.248779,318.815430 344.968384,318.705780 343.512634,318.581085 
	C343.512634,315.681030 343.512634,313.079498 343.512634,309.932678 
	C347.129272,309.932678 350.533722,309.932678 354.585358,309.932678 
	C352.539368,302.793457 346.351379,308.365143 343.526428,305.177063 
	C343.526428,303.015259 343.526428,300.731537 343.526428,297.833435 
	C346.858734,297.833435 349.985077,297.995972 353.074707,297.730804 
	C353.960388,297.654816 354.739868,296.341980 355.568054,295.596252 
	C354.828613,294.915649 354.108582,293.671753 353.346588,293.645508 
	C348.256561,293.470123 343.157562,293.554413 337.773102,293.554413 
	C337.773102,303.654846 337.773102,313.190857 337.773102,322.803101 
	C343.994995,322.803101 349.918182,322.803101 355.841400,322.803101 
	C356.135956,322.392487 356.430511,321.981903 356.725098,321.571289 
	C355.638367,320.689911 354.672302,319.391479 353.434174,319.033142 
	C351.901703,318.589600 350.143494,318.925995 347.529175,318.925110 
M295.379059,251.438629 
	C295.379059,249.126114 295.379059,246.813599 295.379059,243.957611 
	C299.088470,243.957611 302.510223,243.957611 306.564606,243.957611 
	C304.577728,236.752396 298.321533,242.401093 295.546478,239.175003 
	C295.546478,236.992126 295.546478,234.707245 295.546478,231.831909 
	C298.912506,231.831909 302.046814,231.957993 305.158417,231.748032 
	C305.992676,231.691757 306.757782,230.611099 307.554657,230.000702 
	C306.783997,229.184113 306.041840,227.694595 305.238037,227.660538 
	C300.144867,227.444748 295.038086,227.550934 289.712311,227.550934 
	C289.712311,237.663651 289.712311,247.099045 289.712311,256.772766 
	C295.862671,256.772766 301.794708,256.772766 307.937683,256.772766 
	C307.937683,255.523361 307.937683,254.320068 307.937683,253.238297 
	C303.639191,252.927322 299.687653,252.641449 295.379059,251.438629 
M284.715729,227.707733 
	C280.794708,226.072891 279.072632,227.737839 278.215302,231.590729 
	C276.787537,238.006912 275.021301,244.347809 273.397583,250.720398 
	C272.957672,250.698898 272.517761,250.677383 272.077850,250.655884 
	C270.069244,242.902084 268.060638,235.148285 265.959869,227.038696 
	C264.149261,227.205658 262.447601,227.362564 259.744751,227.611786 
	C262.825104,236.860596 265.530273,245.363235 268.568970,253.744949 
	C269.096466,255.199982 271.205353,257.238190 272.279968,257.069641 
	C273.927277,256.811310 276.116699,255.157516 276.671539,253.596710 
	C279.613495,245.320465 282.116821,236.888306 284.715729,227.707733 
M353.452484,252.917160 
	C351.036804,252.917160 348.621124,252.917160 346.327789,252.917160 
	C346.327789,249.524277 346.327789,246.930847 346.327789,243.851410 
	C350.025085,243.851410 353.434753,243.851410 357.762848,243.851410 
	C355.160980,237.142609 349.330109,242.058716 346.357300,239.350952 
	C346.357300,237.004868 346.357300,234.596512 346.357300,231.711639 
	C350.418457,231.711639 354.162262,231.711639 359.443817,231.711639 
	C357.887695,229.621948 357.154968,227.716415 356.324463,227.672775 
	C351.066254,227.396622 345.786377,227.532608 340.423981,227.532608 
	C340.423981,237.679672 340.423981,247.111069 340.423981,256.704163 
	C346.736481,256.704163 352.797943,256.704163 358.880005,256.704163 
	C358.590973,253.052673 358.590973,253.052673 353.452484,252.917160 
M255.923309,314.438019 
	C258.318634,322.683044 267.451782,326.476715 274.881439,322.068207 
	C276.075928,321.359467 276.437836,319.247650 277.602264,316.966125 
	C263.368500,320.265778 258.509735,315.579041 261.670227,303.256927 
	C262.108917,301.546448 262.866302,299.684906 264.052673,298.444885 
	C267.018707,295.344696 271.463898,296.582916 272.400909,300.575409 
	C272.655334,301.659607 272.750885,302.781097 272.959595,304.149017 
	C274.487549,303.992035 275.721161,303.865326 276.747437,303.759918 
	C276.747437,300.124023 276.747437,296.875824 276.747437,293.577789 
	C274.548920,293.412445 272.746002,293.264923 270.941406,293.143219 
	C261.647736,292.516418 256.871277,296.381317 255.788940,305.673920 
	C255.484390,308.288757 255.782578,310.973785 255.923309,314.438019 
M306.654816,259.488098 
	C299.727386,259.493469 299.727386,259.493469 300.798981,263.716980 
	C303.049896,263.831024 305.328400,263.946472 308.159546,264.089935 
	C308.159546,272.504974 308.159546,280.702454 308.159546,289.084961 
	C310.345001,288.976288 311.950684,288.896484 313.994263,288.794861 
	C313.994263,280.428772 313.994263,272.349243 313.994263,264.080566 
	C316.857880,263.937988 319.279694,263.817413 321.669525,263.698425 
	C322.710632,260.885712 322.407898,259.331177 319.092987,259.455597 
	C315.271179,259.598999 311.439911,259.488800 306.654816,259.488098 
M361.581299,289.001495 
	C364.697632,289.001495 367.813995,289.001495 371.799530,289.001495 
	C369.615540,281.883606 363.698395,286.849243 360.419250,284.004303 
	C360.419250,276.314636 360.419250,268.247894 360.419250,259.758301 
	C358.323914,259.918732 356.602081,260.050598 354.828186,260.186432 
	C354.828186,270.016205 354.828186,279.402802 354.828186,289.001495 
	C356.988983,289.001495 358.811951,289.001495 361.581299,289.001495 
M234.509674,229.720352 
	C232.817200,228.934418 231.124725,228.148499 228.795227,227.066772 
	C228.795227,237.916840 228.795227,247.312881 228.795227,256.729431 
	C234.369553,256.729431 239.634781,256.729431 245.763199,256.729431 
	C243.499634,250.176956 237.783264,254.644730 234.446442,252.121353 
	C234.446442,245.117828 234.446442,237.842041 234.509674,229.720352 
M249.874207,240.513077 
	C249.874207,245.929596 249.874207,251.346130 249.874207,256.761719 
	C251.780304,256.761719 253.382690,256.761719 255.499420,256.761719 
	C255.499420,247.559296 255.504379,238.587997 255.485535,229.616776 
	C255.484543,229.142075 255.282028,228.667801 255.081436,227.792282 
	C253.345505,227.922211 251.620575,228.051331 249.871170,228.182266 
	C249.871170,232.263290 249.871170,235.908615 249.874207,240.513077 
M217.106094,309.405609 
	C215.945999,307.600677 214.785889,305.795776 213.440964,303.703278 
	C210.776367,307.315521 212.066330,315.204315 214.957932,316.652039 
	C215.681808,317.014496 217.060684,316.928589 217.656296,316.449402 
	C218.271027,315.954803 218.599731,314.698853 218.510849,313.831604 
	C218.380707,312.561920 217.767090,311.341827 217.106094,309.405609 
M188.886703,322.587830 
	C189.903046,323.637238 190.919388,324.686646 191.935760,325.736023 
	C192.480637,325.001862 193.612228,324.125488 193.474396,323.556732 
	C192.632126,320.081055 191.620911,316.630310 190.361145,313.286102 
	C190.125946,312.661682 188.504852,312.328156 187.531998,312.345520 
	C187.216568,312.351196 186.548279,313.980988 186.698792,314.737000 
	C187.177948,317.144165 187.966507,319.489716 188.886703,322.587830 
M121.850914,155.457489 
	C122.259064,155.519653 122.667213,155.581818 123.075363,155.643982 
	C122.775475,155.508255 122.475586,155.372528 121.850914,155.457489 
z"/>
<path fill="#FBC37B" opacity="1.000000" stroke="none" 
	d="
M104.730179,257.339478 
	C99.740082,241.121048 97.274994,224.882919 97.071869,208.355011 
	C96.972565,200.274185 97.015862,192.076599 98.249184,184.126480 
	C99.506363,176.022568 104.516159,169.581085 110.753250,164.231903 
	C118.807274,157.324448 127.932404,157.959946 137.162903,160.749252 
	C151.468201,165.072052 164.314148,172.282257 175.949448,182.012619 
	C172.991409,180.978149 170.058868,179.862549 167.070724,178.923950 
	C156.843628,175.711655 146.476654,172.876968 135.828430,176.553818 
	C120.454124,181.862610 114.836060,194.148117 112.872841,209.173370 
	C109.282860,236.648849 116.081100,262.641632 123.567940,288.590302 
	C127.184280,301.124176 131.561859,313.269623 139.674927,323.742218 
	C145.492157,331.251312 150.027588,331.220459 153.810974,322.397095 
	C162.199814,302.833130 176.126022,287.995575 191.916107,274.359344 
	C197.482208,269.552521 203.285721,270.257141 210.471603,270.421844 
	C205.538284,274.365784 201.245316,277.381989 197.434708,280.917969 
	C182.901947,294.403412 172.882187,310.950897 165.009476,328.992462 
	C162.493927,334.757233 159.364304,340.300140 156.052551,345.658325 
	C152.816254,350.894470 148.768112,351.770020 144.596466,347.320557 
	C140.117691,342.543488 136.394043,336.864929 133.213104,331.098602 
	C120.442390,307.947937 112.392105,282.923737 104.730179,257.339478 
z"/>
<path fill="#FBC37B" opacity="1.000000" stroke="none" 
	d="
M164.011810,166.945419 
	C152.159897,159.357910 139.461823,155.539566 125.740181,154.756882 
	C135.172684,151.980026 144.403580,152.702133 153.165298,156.291290 
	C161.306320,159.626221 169.304001,163.458496 176.969498,167.773941 
	C189.983414,175.100403 202.937592,174.151688 216.292236,169.103790 
	C229.633148,164.061066 242.859100,157.787170 257.604248,159.164780 
	C275.407715,160.828110 285.404816,167.466095 288.507233,182.904343 
	C290.392487,192.285645 287.795471,201.390289 285.537048,210.431976 
	C285.255554,211.558975 284.853973,212.656586 284.494690,213.763474 
	C280.099365,227.304352 278.692139,228.116531 264.066986,225.373627 
	C265.573181,218.607849 267.442535,211.897919 268.462219,205.061279 
	C269.191101,200.174606 269.492920,195.008148 268.745514,190.157562 
	C266.414093,175.026962 256.287140,169.700470 241.503464,171.459961 
	C230.843140,172.728683 220.306839,175.484116 209.892242,178.244308 
	C200.065887,180.848587 190.783936,179.957458 181.733780,175.809036 
	C175.843735,173.109146 170.130234,170.024124 164.011810,166.945419 
z"/>
<path fill="#2279BE" opacity="1.000000" stroke="none" 
	d="
M290.111389,271.979736 
	C290.104065,267.839874 290.104065,264.188782 290.104065,260.125061 
	C291.865509,260.000885 293.564758,259.881073 295.347504,259.755402 
	C295.347504,269.676727 295.347504,279.115326 295.347504,288.502869 
	C287.077393,290.168274 287.017456,290.194275 283.968170,283.163544 
	C281.750458,278.050232 279.717529,272.856781 277.065857,266.391205 
	C277.065857,274.668396 277.065857,281.542877 277.065857,288.777710 
	C275.211853,288.864319 273.633453,288.938080 271.750366,289.026062 
	C271.750366,279.287994 271.750366,269.864319 271.750366,260.099182 
	C274.622131,259.726776 277.394073,259.367310 280.405151,258.976837 
	C283.224731,266.996674 285.989014,274.859222 288.753265,282.721741 
	C289.208435,282.653625 289.663574,282.585510 290.118744,282.517426 
	C290.118744,279.167786 290.118744,275.818146 290.111389,271.979736 
z"/>
<path fill="#FBC580" opacity="1.000000" stroke="none" 
	d="
M194.632156,356.764160 
	C216.785843,362.363770 237.492218,345.302612 236.250168,320.916168 
	C236.107697,318.119110 236.230850,315.308472 236.230850,311.748077 
	C242.180283,315.122803 243.025269,322.334381 240.113281,333.898712 
	C235.933090,350.499481 221.650421,362.507660 205.586884,362.926910 
	C191.855103,363.285309 180.489609,356.732635 177.305069,346.081970 
	C183.226456,349.775482 188.734116,353.210907 194.632156,356.764160 
z"/>
<path fill="#237ABE" opacity="1.000000" stroke="none" 
	d="
M313.779785,237.091171 
	C313.775391,233.954910 313.775391,231.303345 313.775391,228.665649 
	C321.013062,225.784943 330.027008,226.681656 332.738464,230.910019 
	C335.590454,235.357574 334.246826,239.458954 331.592285,241.949020 
	C332.760864,247.270706 333.742920,251.742966 334.829773,256.692291 
	C332.076141,257.028320 330.364014,257.237213 329.130829,257.387695 
	C328.078583,253.421967 327.578094,249.664795 325.977142,246.456833 
	C325.368103,245.236496 322.230499,245.278091 319.544861,244.556274 
	C319.544861,249.129929 319.544861,252.859634 319.544861,256.797028 
	C317.409821,256.797028 315.797333,256.797028 313.784180,256.797028 
	C313.784180,250.370331 313.784180,243.973099 313.779785,237.091171 
M320.004944,241.057632 
	C321.460938,241.088257 322.955231,241.343750 324.365051,241.103516 
	C327.467712,240.574829 328.947937,238.477295 328.529175,235.432419 
	C328.067169,232.073273 325.749664,230.936844 322.497253,230.922195 
	C318.441223,230.903931 319.244598,233.752441 319.200378,236.109192 
	C319.172699,237.586014 319.319580,239.066116 320.004944,241.057632 
z"/>
<path fill="#287DC0" opacity="1.000000" stroke="none" 
	d="
M311.029419,319.769287 
	C311.040375,310.976685 311.040375,302.662903 311.040375,294.080475 
	C318.076416,293.030182 325.194946,290.946167 330.338715,297.214325 
	C333.745575,301.365936 331.409363,305.688019 329.101715,307.994537 
	C330.286407,313.466583 331.250000,317.917480 332.287201,322.708282 
	C329.532501,323.053680 327.926544,323.255066 326.648468,323.415314 
	C325.664093,319.575256 325.208740,315.800934 323.619385,312.587494 
	C322.988251,311.311523 319.842651,311.279205 317.145447,310.472382 
	C317.145447,314.955017 317.145447,318.679199 317.145447,323.001923 
	C314.515167,322.297119 311.215851,325.318481 311.029419,319.769287 
M325.774567,304.084503 
	C326.072662,297.714233 324.043060,296.169708 317.171631,297.766968 
	C317.171631,300.762207 317.171631,303.809845 317.171631,308.319458 
	C320.405914,306.938538 322.897858,305.874573 325.774567,304.084503 
z"/>
<path fill="#247ABF" opacity="1.000000" stroke="none" 
	d="
M176.206909,228.200150 
	C178.853561,227.648727 181.149261,227.152771 183.457138,227.087570 
	C193.100708,226.815125 198.693970,231.708191 199.039413,240.556641 
	C199.428345,250.518967 193.726913,257.181458 184.303925,257.549408 
	C181.521317,257.658051 178.719147,257.265961 175.861542,257.099579 
	C175.861542,247.281052 175.861542,237.867386 176.206909,228.200150 
M191.098618,250.390091 
	C191.712646,245.928345 192.990509,241.430740 192.751923,237.015060 
	C192.518570,232.696075 187.651413,230.012665 183.504990,231.097961 
	C182.635101,231.325653 181.370453,232.431625 181.352997,233.158447 
	C181.188507,240.007294 181.255234,246.861694 181.255234,255.354980 
	C185.248383,253.502029 187.932648,252.256439 191.098618,250.390091 
z"/>
<path fill="#277CC0" opacity="1.000000" stroke="none" 
	d="
M384.888977,232.251831 
	C388.841125,239.083466 388.823029,245.643509 384.454163,251.723236 
	C379.375458,258.790741 371.943604,258.045624 364.274231,256.922760 
	C364.274231,247.321747 364.274231,237.787170 364.274231,228.045914 
	C371.686340,226.717804 378.900177,225.391357 384.888977,232.251831 
M369.924591,252.058746 
	C371.497162,252.598526 373.217651,253.845596 374.616119,253.553055 
	C380.056396,252.415054 382.912872,246.353790 381.858429,239.020279 
	C380.897217,232.335251 377.027344,229.926361 369.904053,231.923477 
	C369.904053,238.255508 369.904053,244.699097 369.924591,252.058746 
z"/>
<path fill="#247ABE" opacity="1.000000" stroke="none" 
	d="
M233.828964,288.828857 
	C228.804245,289.055511 223.779526,289.282166 218.625961,289.514618 
	C218.625961,279.217529 218.625961,269.942719 218.625961,260.743500 
	C231.477509,255.301834 241.609940,261.283112 242.056854,275.201843 
	C240.155151,279.626190 238.290070,283.265961 236.064316,286.989655 
	C235.114716,287.694366 234.525787,288.315094 233.919556,288.899323 
	C233.902237,288.862823 233.828964,288.828857 233.828964,288.828857 
M235.432327,267.596497 
	C233.083023,262.786652 229.228592,262.324738 224.204926,263.651855 
	C224.204926,270.166870 224.184906,276.466339 224.226303,282.765411 
	C224.232574,283.719910 224.524475,284.672516 224.674759,285.569397 
	C231.331512,286.250458 235.360199,283.414520 236.031174,277.291748 
	C236.352646,274.358124 235.896530,271.339294 235.432327,267.596497 
z"/>
<path fill="#287DC0" opacity="1.000000" stroke="none" 
	d="
M305.008087,323.117096 
	C301.378754,324.168274 300.014954,322.605316 299.789764,319.520264 
	C299.473938,315.194153 296.886292,314.561310 293.018616,314.512390 
	C289.037109,314.462036 287.169159,315.772247 286.898865,319.634827 
	C286.604340,323.844940 283.623627,323.291992 279.558655,323.343018 
	C283.206940,313.527832 286.453369,304.344086 290.074219,295.310425 
	C291.249451,292.378387 295.766663,292.084106 296.769684,294.761322 
	C300.147491,303.777161 303.142548,312.936646 306.223999,322.061432 
	C306.295898,322.274384 305.659882,322.726410 305.008087,323.117096 
M289.616791,309.614563 
	C291.937897,310.122925 294.259003,310.631256 297.847778,311.417236 
	C296.187195,306.500946 295.001740,302.991302 293.366760,298.150848 
	C291.857971,302.668365 290.817963,305.782288 289.616791,309.614563 
z"/>
<path fill="#277CC0" opacity="1.000000" stroke="none" 
	d="
M343.024658,266.887817 
	C345.519684,274.294434 347.903015,281.329590 350.423279,288.768921 
	C348.081207,289.077576 346.491425,289.287079 344.296051,289.576385 
	C343.644806,283.505035 341.676422,279.077667 334.192627,280.557251 
	C329.189362,281.546417 331.535889,286.013977 328.871460,288.877350 
	C327.948669,288.998993 326.232086,289.225281 322.964417,289.656006 
	C326.784851,279.433136 330.044403,270.115692 333.797913,261.001678 
	C335.050934,257.959106 339.171967,258.442719 340.697906,261.493866 
	C341.515381,263.128479 342.179596,264.839722 343.024658,266.887817 
M334.906830,276.781158 
	C336.772034,276.781158 338.637268,276.781158 341.167542,276.781158 
	C339.678345,272.550507 338.491302,269.178314 337.304260,265.806091 
	C336.741211,265.848175 336.178131,265.890289 335.615082,265.932373 
	C335.110382,269.524841 334.605713,273.117340 334.906830,276.781158 
z"/>
<path fill="#2078BE" opacity="1.000000" stroke="none" 
	d="
M210.300507,246.980957 
	C210.295319,249.117126 210.295319,250.754547 210.295319,252.757706 
	C214.734497,252.757706 218.693954,252.757706 224.538315,252.757706 
	C222.874619,254.898376 222.101593,256.816315 221.232147,256.861084 
	C215.797028,257.140869 210.340378,257.002350 204.729111,257.002350 
	C204.729111,247.057678 204.729111,237.625534 204.729111,227.552490 
	C210.083359,227.552490 215.189941,227.468399 220.287796,227.641663 
	C221.067108,227.668137 221.805984,228.883820 222.563553,229.549484 
	C221.747986,230.310593 220.982605,231.652588 220.107834,231.728149 
	C217.001648,231.996414 213.858170,231.832809 210.526794,231.832809 
	C210.526794,234.738708 210.526794,237.029999 210.526794,239.142746 
	C213.337906,242.403503 219.605438,236.705017 221.553238,244.015640 
	C218.451782,244.015640 215.955582,243.755951 213.556778,244.126648 
	C212.379852,244.308517 211.383667,245.660019 210.300507,246.980957 
z"/>
<path fill="#2078BE" opacity="1.000000" stroke="none" 
	d="
M348.005981,318.925262 
	C350.143494,318.925995 351.901703,318.589600 353.434174,319.033142 
	C354.672302,319.391479 355.638367,320.689911 356.725098,321.571289 
	C356.430511,321.981903 356.135956,322.392487 355.841400,322.803101 
	C349.918182,322.803101 343.994995,322.803101 337.773102,322.803101 
	C337.773102,313.190857 337.773102,303.654846 337.773102,293.554413 
	C343.157562,293.554413 348.256561,293.470123 353.346588,293.645508 
	C354.108582,293.671753 354.828613,294.915649 355.568054,295.596252 
	C354.739868,296.341980 353.960388,297.654816 353.074707,297.730804 
	C349.985077,297.995972 346.858734,297.833435 343.526428,297.833435 
	C343.526428,300.731537 343.526428,303.015259 343.526428,305.177063 
	C346.351379,308.365143 352.539368,302.793457 354.585358,309.932678 
	C350.533722,309.932678 347.129272,309.932678 343.512634,309.932678 
	C343.512634,313.079498 343.512634,315.681030 343.512634,318.581085 
	C344.968384,318.705780 346.248779,318.815430 348.005981,318.925262 
z"/>
<path fill="#2078BE" opacity="1.000000" stroke="none" 
	d="
M295.557587,251.897095 
	C299.687653,252.641449 303.639191,252.927322 307.937683,253.238297 
	C307.937683,254.320068 307.937683,255.523361 307.937683,256.772766 
	C301.794708,256.772766 295.862671,256.772766 289.712311,256.772766 
	C289.712311,247.099045 289.712311,237.663651 289.712311,227.550934 
	C295.038086,227.550934 300.144867,227.444748 305.238037,227.660538 
	C306.041840,227.694595 306.783997,229.184113 307.554657,230.000702 
	C306.757782,230.611099 305.992676,231.691757 305.158417,231.748032 
	C302.046814,231.957993 298.912506,231.831909 295.546478,231.831909 
	C295.546478,234.707245 295.546478,236.992126 295.546478,239.175003 
	C298.321533,242.401093 304.577728,236.752396 306.564606,243.957611 
	C302.510223,243.957611 299.088470,243.957611 295.379059,243.957611 
	C295.379059,246.813599 295.379059,249.126114 295.557587,251.897095 
z"/>
<path fill="#287DC0" opacity="1.000000" stroke="none" 
	d="
M284.743896,228.108948 
	C282.116821,236.888306 279.613495,245.320465 276.671539,253.596710 
	C276.116699,255.157516 273.927277,256.811310 272.279968,257.069641 
	C271.205353,257.238190 269.096466,255.199982 268.568970,253.744949 
	C265.530273,245.363235 262.825104,236.860596 259.744751,227.611786 
	C262.447601,227.362564 264.149261,227.205658 265.959869,227.038696 
	C268.060638,235.148285 270.069244,242.902084 272.077850,250.655884 
	C272.517761,250.677383 272.957672,250.698898 273.397583,250.720398 
	C275.021301,244.347809 276.787537,238.006912 278.215302,231.590729 
	C279.072632,227.737839 280.794708,226.072891 284.743896,228.108948 
z"/>
<path fill="#247ABF" opacity="1.000000" stroke="none" 
	d="
M353.923920,252.917160 
	C358.590973,253.052673 358.590973,253.052673 358.880005,256.704163 
	C352.797943,256.704163 346.736481,256.704163 340.423981,256.704163 
	C340.423981,247.111069 340.423981,237.679672 340.423981,227.532608 
	C345.786377,227.532608 351.066254,227.396622 356.324463,227.672775 
	C357.154968,227.716415 357.887695,229.621948 359.443817,231.711639 
	C354.162262,231.711639 350.418457,231.711639 346.357300,231.711639 
	C346.357300,234.596512 346.357300,237.004868 346.357300,239.350952 
	C349.330109,242.058716 355.160980,237.142609 357.762848,243.851410 
	C353.434753,243.851410 350.025085,243.851410 346.327789,243.851410 
	C346.327789,246.930847 346.327789,249.524277 346.327789,252.917160 
	C348.621124,252.917160 351.036804,252.917160 353.923920,252.917160 
z"/>
<path fill="#247BBF" opacity="1.000000" stroke="none" 
	d="
M255.863800,314.032318 
	C255.782578,310.973785 255.484390,308.288757 255.788940,305.673920 
	C256.871277,296.381317 261.647736,292.516418 270.941406,293.143219 
	C272.746002,293.264923 274.548920,293.412445 276.747437,293.577789 
	C276.747437,296.875824 276.747437,300.124023 276.747437,303.759918 
	C275.721161,303.865326 274.487549,303.992035 272.959595,304.149017 
	C272.750885,302.781097 272.655334,301.659607 272.400909,300.575409 
	C271.463898,296.582916 267.018707,295.344696 264.052673,298.444885 
	C262.866302,299.684906 262.108917,301.546448 261.670227,303.256927 
	C258.509735,315.579041 263.368500,320.265778 277.602264,316.966125 
	C276.437836,319.247650 276.075928,321.359467 274.881439,322.068207 
	C267.451782,326.476715 258.318634,322.683044 255.863800,314.032318 
z"/>
<path fill="#2078BE" opacity="1.000000" stroke="none" 
	d="
M247.654694,270.278839 
	C247.654694,266.977844 247.654694,263.676849 247.654694,259.566162 
	C253.232224,259.566162 258.457214,259.483490 263.672577,259.670349 
	C264.327454,259.693817 265.459808,261.177032 265.405304,261.912354 
	C265.354309,262.601044 264.055115,263.687286 263.246307,263.742981 
	C260.125549,263.957825 256.981201,263.830200 253.949509,263.830200 
	C252.453262,271.864197 252.534882,271.954529 259.788666,272.079987 
	C261.975159,272.117798 264.944458,271.296295 263.772583,275.935669 
	C260.530426,275.935669 257.124878,275.935669 253.509918,275.935669 
	C253.509918,279.083954 253.509918,281.687317 253.509918,284.363129 
	C257.857910,284.854950 262.011993,285.296783 266.140167,285.912537 
	C266.279694,285.933350 266.157867,287.706299 266.157867,288.825378 
	C259.875763,288.825378 253.949249,288.825378 247.592224,288.825378 
	C247.592224,287.236420 247.592224,285.788727 247.664154,283.566132 
	C247.708969,278.620453 247.681839,274.449646 247.654694,270.278839 
z"/>
<path fill="#297DC0" opacity="1.000000" stroke="none" 
	d="
M307.133789,259.488403 
	C311.439911,259.488800 315.271179,259.598999 319.092987,259.455597 
	C322.407898,259.331177 322.710632,260.885712 321.669525,263.698425 
	C319.279694,263.817413 316.857880,263.937988 313.994263,264.080566 
	C313.994263,272.349243 313.994263,280.428772 313.994263,288.794861 
	C311.950684,288.896484 310.345001,288.976288 308.159546,289.084961 
	C308.159546,280.702454 308.159546,272.504974 308.159546,264.089935 
	C305.328400,263.946472 303.049896,263.831024 300.798981,263.716980 
	C299.727386,259.493469 299.727386,259.493469 307.133789,259.488403 
z"/>
<path fill="#F6C37F" opacity="1.000000" stroke="none" 
	d="
M247.325775,270.245605 
	C247.681839,274.449646 247.708969,278.620453 247.637421,283.109253 
	C241.280487,290.674530 235.051636,297.947540 228.744034,305.151581 
	C227.101288,307.027802 225.212967,308.688995 222.730301,309.728851 
	C226.559967,302.999969 230.389633,296.271118 234.024124,289.185547 
	C233.828964,288.828857 233.902237,288.862823 234.273407,289.001617 
	C235.238052,288.395508 235.831512,287.650604 236.424988,286.905701 
	C238.290070,283.265961 240.155151,279.626190 242.105362,275.647095 
	C243.792618,273.609314 245.394730,271.910828 247.325775,270.245605 
z"/>
<path fill="#1C76BC" opacity="1.000000" stroke="none" 
	d="
M361.108093,289.001495 
	C358.811951,289.001495 356.988983,289.001495 354.828186,289.001495 
	C354.828186,279.402802 354.828186,270.016205 354.828186,260.186432 
	C356.602081,260.050598 358.323914,259.918732 360.419250,259.758301 
	C360.419250,268.247894 360.419250,276.314636 360.419250,284.004303 
	C363.698395,286.849243 369.615540,281.883606 371.799530,289.001495 
	C367.813995,289.001495 364.697632,289.001495 361.108093,289.001495 
z"/>
<path fill="#1C76BC" opacity="1.000000" stroke="none" 
	d="
M234.478058,230.143311 
	C234.446442,237.842041 234.446442,245.117828 234.446442,252.121353 
	C237.783264,254.644730 243.499634,250.176956 245.763199,256.729431 
	C239.634781,256.729431 234.369553,256.729431 228.795227,256.729431 
	C228.795227,247.312881 228.795227,237.916840 228.795227,227.066772 
	C231.124725,228.148499 232.817200,228.934418 234.478058,230.143311 
z"/>
<path fill="#1C76BC" opacity="1.000000" stroke="none" 
	d="
M249.872681,240.033508 
	C249.871170,235.908615 249.871170,232.263290 249.871170,228.182266 
	C251.620575,228.051331 253.345505,227.922211 255.081436,227.792282 
	C255.282028,228.667801 255.484543,229.142075 255.485535,229.616776 
	C255.504379,238.587997 255.499420,247.559296 255.499420,256.761719 
	C253.382690,256.761719 251.780304,256.761719 249.874207,256.761719 
	C249.874207,251.346130 249.874207,245.929596 249.872681,240.033508 
z"/>
<path fill="#FBC580" opacity="1.000000" stroke="none" 
	d="
M217.232819,309.753113 
	C217.767090,311.341827 218.380707,312.561920 218.510849,313.831604 
	C218.599731,314.698853 218.271027,315.954803 217.656296,316.449402 
	C217.060684,316.928589 215.681808,317.014496 214.957932,316.652039 
	C212.066330,315.204315 210.776367,307.315521 213.440964,303.703278 
	C214.785889,305.795776 215.945999,307.600677 217.232819,309.753113 
z"/>
<path fill="#FBC782" opacity="1.000000" stroke="none" 
	d="
M188.761108,322.223450 
	C187.966507,319.489716 187.177948,317.144165 186.698792,314.737000 
	C186.548279,313.980988 187.216568,312.351196 187.531998,312.345520 
	C188.504852,312.328156 190.125946,312.661682 190.361145,313.286102 
	C191.620911,316.630310 192.632126,320.081055 193.474396,323.556732 
	C193.612228,324.125488 192.480637,325.001862 191.935745,325.736023 
	C190.919388,324.686646 189.903046,323.637238 188.761108,322.223450 
z"/>
<path fill="#FBC37B" opacity="1.000000" stroke="none" 
	d="
M122.013306,155.347137 
	C122.475586,155.372528 122.775475,155.508255 123.075363,155.643982 
	C122.667213,155.581818 122.259064,155.519653 122.013306,155.347137 
z"/>
<path fill="#F2F7FB" opacity="1.000000" stroke="none" 
	d="
M319.696533,240.801178 
	C319.319580,239.066116 319.172699,237.586014 319.200378,236.109192 
	C319.244598,233.752441 318.441223,230.903931 322.497253,230.922195 
	C325.749664,230.936844 328.067169,232.073273 328.529175,235.432419 
	C328.947937,238.477295 327.467712,240.574829 324.365051,241.103516 
	C322.955231,241.343750 321.460938,241.088257 319.696533,240.801178 
z"/>
<path fill="#F9FBFD" opacity="1.000000" stroke="none" 
	d="
M325.582184,304.447571 
	C322.897858,305.874573 320.405914,306.938538 317.171631,308.319458 
	C317.171631,303.809845 317.171631,300.762207 317.171631,297.766968 
	C324.043060,296.169708 326.072662,297.714233 325.582184,304.447571 
z"/>
<path fill="#F7FAFD" opacity="1.000000" stroke="none" 
	d="
M190.857773,250.700470 
	C187.932648,252.256439 185.248383,253.502029 181.255234,255.354980 
	C181.255234,246.861694 181.188507,240.007294 181.352997,233.158447 
	C181.370453,232.431625 182.635101,231.325653 183.504990,231.097961 
	C187.651413,230.012665 192.518570,232.696075 192.751923,237.015060 
	C192.990509,241.430740 191.712646,245.928345 190.857773,250.700470 
z"/>
<path fill="#FBFCFE" opacity="1.000000" stroke="none" 
	d="
M369.914307,251.600708 
	C369.904053,244.699097 369.904053,238.255508 369.904053,231.923477 
	C377.027344,229.926361 380.897217,232.335251 381.858429,239.020279 
	C382.912872,246.353790 380.056396,252.415054 374.616119,253.553055 
	C373.217651,253.845596 371.497162,252.598526 369.914307,251.600708 
z"/>
<path fill="#F7FAFD" opacity="1.000000" stroke="none" 
	d="
M235.612457,267.977783 
	C235.896530,271.339294 236.352646,274.358124 236.031174,277.291748 
	C235.360199,283.414520 231.331512,286.250458 224.674759,285.569397 
	C224.524475,284.672516 224.232574,283.719910 224.226303,282.765411 
	C224.184906,276.466339 224.204926,270.166870 224.204926,263.651855 
	C229.228592,262.324738 233.083023,262.786652 235.612457,267.977783 
z"/>
<path fill="#FFFFFF" opacity="1.000000" stroke="none" 
	d="
M236.064301,286.989655 
	C235.831512,287.650604 235.238052,288.395508 234.290710,289.038116 
	C234.525787,288.315094 235.114716,287.694366 236.064301,286.989655 
z"/>
<path fill="#E6F0F8" opacity="1.000000" stroke="none" 
	d="
M289.697388,309.255371 
	C290.817963,305.782288 291.857971,302.668365 293.366760,298.150848 
	C295.001740,302.991302 296.187195,306.500946 297.847778,311.417236 
	C294.259003,310.631256 291.937897,310.122925 289.697388,309.255371 
z"/>
<path fill="#E6F0F8" opacity="1.000000" stroke="none" 
	d="
M334.503906,276.745483 
	C334.605713,273.117340 335.110382,269.524841 335.615082,265.932373 
	C336.178131,265.890289 336.741211,265.848175 337.304260,265.806091 
	C338.491302,269.178314 339.678345,272.550507 341.167542,276.781158 
	C338.637268,276.781158 336.772034,276.781158 334.503906,276.745483 
z"/>
</svg>